<svg width="720" height="792" fill="none" xmlns="http://www.w3.org/2000/svg"><path d="M161.029 651.51l26.291-46.008 44.365-4.929-29.577-19.718 26.29-46.009-44.365 35.328-23.826-15.61v35.328l-29.576 23.826 30.398-3.286v41.078zm-60.797-120.771l57.511-215.253c23.004-85.444 117.485-156.1 215.253-163.494l-9.038 33.684c-59.975 9.859-120.771 70.656-139.668 143.776l-53.402 200.465h-70.656v.822zm252.224 112.556c7.395 1.643 15.61 3.286 23.826 4.929l4.93-17.253c-24.648-7.394-43.544-24.647-55.046-49.295-11.502-23.825-14.788-55.045-9.037-88.73.821-4.929 2.464-10.68 3.286-15.61l50.938-188.963h-50.938l-55.867 208.681c-2.465 8.216-3.287 16.431-4.108 24.647-2.465 28.755 5.751 55.046 21.361 76.407 15.61 21.361 40.257 36.971 70.655 45.187zm29.577 23.825c-12.323-.821-23.826-3.286-35.328-5.751-34.506-9.037-61.618-27.112-80.514-51.759-18.896-24.647-27.934-55.046-25.469-88.73.822-9.038 2.465-18.897 4.929-27.934l57.511-215.253 1.643-6.573h89.552l-3.286 11.502-53.403 200.465c-1.643 4.93-2.465 9.859-3.286 13.967-5.751 29.577-2.465 56.689 7.394 77.228 9.037 19.718 25.469 34.506 46.008 39.436 1.643.821 4.108.821 5.751 1.643l9.859 1.643-2.465 9.859-9.037 33.685-1.643 7.394-8.216-.822zm249.76-518.415l-26.291 46.009-44.365 4.929 29.577 19.718-26.291 46.008 44.365-35.327 23.826 16.431v-35.328l29.577-23.825-29.577 4.107-.821-42.722zm44.365 130.631l-57.511 215.253c-23.004 85.444-117.485 156.1-215.253 163.494l9.038-33.685c59.975-9.859 120.771-70.655 139.668-143.776l54.224-201.286h69.834zM424.755 166.78c-7.394-1.643-15.61-3.286-23.826-4.929L396 179.104c24.647 7.394 43.544 24.647 55.046 49.294 11.502 23.826 14.788 55.046 9.037 88.731-.822 4.929-2.465 10.68-3.286 15.61l-50.938 188.962h50.938l55.867-208.68c2.465-8.216 3.286-16.432 4.108-24.648 2.465-28.755-5.751-55.045-21.361-76.406-16.432-20.54-41.079-36.971-70.656-45.187zm-30.398-23.826c12.324.822 23.826 3.287 35.328 5.751 34.506 9.038 61.618 27.112 80.514 51.76 18.896 24.647 27.934 55.045 25.469 88.73-.822 9.037-2.465 18.896-4.929 27.934l-57.511 215.253-1.643 6.572h-89.552l3.287-11.502 53.402-200.464c1.643-4.93 2.465-9.859 3.286-13.967 5.751-29.577 2.465-56.689-7.394-77.228-9.037-19.718-25.469-34.507-46.008-39.436-1.643-.822-4.108-.822-5.751-1.643l-9.859-1.643 2.465-9.859 9.037-33.685 1.643-7.394 8.216.821zM396 41.9c-97.768 0-185.676 39.436-250.581 104.341C81.336 210.324 41.9 298.232 41.9 396c0 97.768 39.436 185.676 104.341 250.581 64.083 64.083 152.813 104.34 250.581 104.34 97.767 0 185.676-39.436 250.581-104.34 64.083-64.083 104.34-152.813 104.34-250.581s-39.436-185.676-104.34-250.581C581.676 81.336 493.768 41.9 396 41.9zM396 0c109.27 0 207.859 44.365 280.158 115.842C747.635 187.32 792 286.73 792 396c0 109.27-44.365 207.859-115.842 280.158C603.859 747.635 505.27 792 396 792c-109.27 0-207.859-44.365-280.158-115.842C44.365 603.859 0 505.27 0 396c0-109.27 44.365-207.859 115.842-280.158C188.141 44.365 286.73 0 396 0z" fill="#EEE"/></svg>