<!--?xml version="1.0" encoding="utf-8"?-->
<!-- Generator: Adobe Illustrator 24.1.2, SVG Export Plug-In . SVG Version: 6.00 Build 0)  -->
<svg version="1.1" id="Layer_1" xmlns="http://www.w3.org/2000/svg" xmlns:xlink="http://www.w3.org/1999/xlink" x="0px" y="0px" viewBox="0 0 792 792" style="enable-background:new 0 0 792 792;" xml:space="preserve" width="792" height="792">
<style type="text/css">
	.st0{fill:#EEEEEE;}
</style>
<polygon class="st0 svg-elem-1" points="161,651.5 187.3,605.5 231.7,600.6 202.1,580.9 228.4,534.8 184,570.2 160.2,554.6 160.2,589.9 
	130.6,613.7 161,610.4 "></polygon>
<path class="st0 svg-elem-2" d="M100.2,530.7l57.5-215.3C180.7,230,275.2,159.4,373,152l-9,33.7c-60,9.9-120.8,70.7-139.7,143.8l-53.4,200.5
	h-70.7V530.7z"></path>
<path class="st0 svg-elem-3" d="M352.5,643.3c7.4,1.6,15.6,3.3,23.8,4.9l4.9-17.3c-24.6-7.4-43.5-24.6-55-49.3c-11.5-23.8-14.8-55-9-88.7
	c0.8-4.9,2.5-10.7,3.3-15.6l50.9-189h-50.9l-55.9,208.7c-2.5,8.2-3.3,16.4-4.1,24.6c-2.5,28.8,5.8,55,21.4,76.4
	C297.4,619.5,322.1,635.1,352.5,643.3z"></path>
<path class="st0 svg-elem-4" d="M382,667.1c-12.3-0.8-23.8-3.3-35.3-5.8c-34.5-9-61.6-27.1-80.5-51.8c-18.9-24.6-27.9-55-25.5-88.7
	c0.8-9,2.5-18.9,4.9-27.9l57.5-215.3l1.6-6.6h7.4H382h12.3l-3.3,11.5l-53.4,200.5c-1.6,4.9-2.5,9.9-3.3,14
	c-5.8,29.6-2.5,56.7,7.4,77.2c9,19.7,25.5,34.5,46,39.4c1.6,0.8,4.1,0.8,5.8,1.6l9.9,1.6l-2.5,9.9l-9,33.7l-1.6,7.4L382,667.1z"></path>
<polygon class="st0 svg-elem-5" points="631.8,148.7 605.5,194.7 561.1,199.6 590.7,219.4 564.4,265.4 608.8,230 632.6,246.5 632.6,211.1 
	662.2,187.3 632.6,191.4 "></polygon>
<path class="st0 svg-elem-6" d="M676.2,279.3l-57.5,215.3c-23,85.4-117.5,156.1-215.3,163.5l9-33.7c60-9.9,120.8-70.7,139.7-143.8l54.2-201.3
	H676.2z"></path>
<path class="st0 svg-elem-7" d="M424.8,166.8c-7.4-1.6-15.6-3.3-23.8-4.9l-4.9,17.3c24.6,7.4,43.5,24.6,55,49.3c11.5,23.8,14.8,55,9,88.7
	c-0.8,4.9-2.5,10.7-3.3,15.6l-50.9,189h50.9L512.7,313c2.5-8.2,3.3-16.4,4.1-24.6c2.5-28.8-5.8-55-21.4-76.4
	C479,191.4,454.3,175,424.8,166.8z"></path>
<path class="st0 svg-elem-8" d="M394.4,143c12.3,0.8,23.8,3.3,35.3,5.8c34.5,9,61.6,27.1,80.5,51.8c18.9,24.6,27.9,55,25.5,88.7
	c-0.8,9-2.5,18.9-4.9,27.9l-57.5,215.3l-1.6,6.6h-7.4h-69.8H382l3.3-11.5L438.7,327c1.6-4.9,2.5-9.9,3.3-14
	c5.8-29.6,2.5-56.7-7.4-77.2c-9-19.7-25.5-34.5-46-39.4c-1.6-0.8-4.1-0.8-5.8-1.6l-9.9-1.6l2.5-9.9l9-33.7l1.6-7.4L394.4,143z"></path>
<path class="st0 svg-elem-9" d="M676.2,115.8C603.9,44.4,505.3,0,396,0S188.1,44.4,115.8,115.8C44.4,188.1,0,286.7,0,396
	s44.4,207.9,115.8,280.2C188.1,747.6,286.7,792,396,792s207.9-44.4,280.2-115.8C747.6,603.9,792,505.3,792,396
	S747.6,187.3,676.2,115.8z M647.4,646.6c-64.9,64.9-152.8,104.3-250.6,104.3c-97.8,0-186.5-40.3-250.6-104.3
	C81.3,581.7,41.9,493.8,41.9,396s39.4-185.7,103.5-249.8C210.3,81.3,298.2,41.9,396,41.9s185.7,39.4,251.4,103.5
	c64.9,64.9,104.3,152.8,104.3,250.6S711.5,582.5,647.4,646.6z"></path>
</svg>
